<?xml version="1.0" encoding="iso-8859-1"?>
<!-- Generator: Adobe Illustrator 16.0.0, SVG Export Plug-In . SVG Version: 6.00 Build 0)  -->
<!DOCTYPE svg PUBLIC "-//W3C//DTD SVG 1.1//EN" "http://www.w3.org/Graphics/SVG/1.1/DTD/svg11.dtd">
<svg version="1.1" xmlns="http://www.w3.org/2000/svg" xmlns:xlink="http://www.w3.org/1999/xlink" x="0px" y="0px" width="500px"
	 height="500px" viewBox="0 0 500 500" style="enable-background:new 0 0 500 500;" xml:space="preserve">
<g id="_x34_2-interface_-_arrow_right" style="enable-background:new    ;">
	<g id="_x34_2-interface_-_arrow_right_1_">
		<g>
			<path d="M495.364,211.935L292.741,51.064c-4.667-3.694-11.124-4.412-16.568-1.933c-5.447,2.508-8.927,7.808-8.927,13.646
				l-0.486,84.86c-90.808,2.792-161.129,31.037-206.713,82.641C-14.143,314.276,2.415,436.315,3.194,441.403
				c1.155,7.411,6.772,12.849,14.48,12.849c0.166,0,0.351,0,0.535-0.004c7.902-0.262,12.89-6.194,13.564-13.812
				c0.535-5.606,16.094-141.286,234.987-141.14l0.486,86.754c0,5.849,3.479,11.172,8.958,13.675
				c5.413,2.504,11.931,1.739,16.588-1.985l202.619-162.395c3.63-2.884,5.722-7.177,5.704-11.713
				C501.104,219.097,498.996,214.803,495.364,211.935z M298.493,354.051v-70.111c0-4.003-1.646-7.874-4.59-10.7
				c-2.932-2.822-6.896-4.403-11.032-4.403c-0.019,0-0.032,0-0.032,0C126.482,268.927,66.732,319.99,32.61,365.117
				c4.99-36.141,19.562-79.719,51.27-115.295c42.16-47.277,110.079-72.196,198.991-72.196c8.634,0,15.622-6.759,15.622-15.114
				V94.597l162.324,129.107L298.493,354.051z"/>
		</g>
	</g>
</g>
<g id="Layer_1">
</g>
</svg>
