<?xml version="1.0" encoding="utf-8"?>
<!-- Generator: Adobe Illustrator 19.0.1, SVG Export Plug-In . SVG Version: 6.00 Build 0)  -->
<svg version="1.1" id="レイヤー_1" xmlns="http://www.w3.org/2000/svg" xmlns:xlink="http://www.w3.org/1999/xlink" x="0px"
	 y="0px" viewBox="0 0 500 500" style="enable-background:new 0 0 500 500;" xml:space="preserve">
<style type="text/css">
	.st0{fill:#1A1A1A;}
</style>
<path class="st0" d="M399.6,191.9c-11.9,0-23.6,2.1-34.8,6.3l-22.1-40.5l1.7-4.1c15-2.7,26.8-15,28.4-30.1l0.7-6.7l-79.4,0.2
	c-4.2,0-7.8,3-8.6,7.2c-0.9,4.7,1.5,9.4,5.8,11.1l25.2,10.5l-2.3,5.7H164.3c0.1-8.1-1.6-15.4-5.1-21.9H179c7,0,12-4.7,12-11
	c0-6.3-5-11-12-11h-52.4c-4,0-8.8,3-9.9,11.4c-0.9,6.7,0.9,14.2,6.9,15.9c0.9,0.3,6.1,3,9.2,7.6c3.1,4.7,3.4,10.7,0.8,18.2
	l-12.1,33.4c-34.4-7.2-67.8,3.5-91.5,27.3c-19,19-29.5,44.3-29.5,71.1c0,55.5,45.2,100.7,100.6,100.7c55.6,0,100.7-45.2,100.7-100.7
	c0-20.9-6.6-40.8-18.2-57.4c8,6.8,16.3,13.8,24.2,20.5c24.1,20.4,45,38.1,46.9,39.8c7.2,6.3,16.4,9.6,26.7,9.6h18.4
	c6.3,49.9,49,88.2,99.8,88.2c55.6,0,100.7-45.2,100.7-100.7C500.3,237.1,455.1,191.9,399.6,191.9z M331.1,278.2
	c3.1-15,11.2-28.6,22.9-38.7l21.1,38.7H331.1z M339.1,212.2c-21.4,16.1-35.4,39.7-39.2,66.1h-6.5l35-85.7L339.1,212.2z M399.6,362.6
	c-33.8,0-62.8-24.8-68.8-57.5h68.9c5.8,0,10-2,12.5-6.1c2.6-4.4,2.7-9.3,0.2-13.8l-32.6-59.7c6.4-1.9,13.1-2.9,19.8-2.9
	c38.6,0,70,31.4,70,70C469.6,331.2,438.2,362.6,399.6,362.6z M302.1,178.3l-35.9,88.9c-20.9-18-79-67.7-103.8-88.9H302.1z
	 M87.3,287.6c-1.3,3.7-1.1,7.6,0.5,11.1c1.6,3.5,4.6,6.1,8.1,7.4c2,0.8,3.9,0.9,5.1,0.9c6,0,11.5-3.9,13.7-9.6l23.2-64.2
	c20.6,12.8,33.1,35,33.1,59.4c0,38.6-31.5,70-70.1,70c-38.6,0-69.9-31.4-70-70c0-38.5,31.4-70,70-70c3.2,0,6.4,0.2,9.8,0.7
	L87.3,287.6z"/>
</svg>
