<?xml version="1.0" encoding="utf-8"?>
<!-- Generator: Adobe Illustrator 17.1.0, SVG Export Plug-In . SVG Version: 6.00 Build 0)  -->
<!DOCTYPE svg PUBLIC "-//W3C//DTD SVG 1.1 Basic//EN" "http://www.w3.org/Graphics/SVG/1.1/DTD/svg11-basic.dtd">
<svg version="1.1" baseProfile="basic" id="Arrow_1_"
	 xmlns="http://www.w3.org/2000/svg" xmlns:xlink="http://www.w3.org/1999/xlink" x="0px" y="0px" width="500px" height="500px"
	 viewBox="0 0 500 500" xml:space="preserve">
  <metadata>
    <?xpacket begin="﻿" id="W5M0MpCehiHzreSzNTczkc9d"?>
    <x:xmpmeta xmlns:x="adobe:ns:meta/" x:xmptk="Adobe XMP Core 5.6-c011 79.156380, 2014/06/19-23:40:37        ">
     <rdf:RDF xmlns:rdf="http://www.w3.org/1999/02/22-rdf-syntax-ns#">
      <rdf:Description rdf:about=""
        xmlns:xmpMM="http://ns.adobe.com/xap/1.0/mm/"
        xmlns:stEvt="http://ns.adobe.com/xap/1.0/sType/ResourceEvent#"
        xmlns:xmp="http://ns.adobe.com/xap/1.0/"
        xmlns:xmpRights="http://ns.adobe.com/xap/1.0/rights/"
        xmlns:dc="http://purl.org/dc/elements/1.1/"
       xmpMM:DocumentID="xmp.did:b12b331cc031e94d707370b2031ee33f"
       xmpMM:OriginalDocumentID="xmp.did:b12b331cc031e94d707370b2031ee33f"
       xmpMM:InstanceID="xmp.iid:b12b331cc031e94d707370b2031ee33f"
       xmp:ModifyDate="2015-04-27T10:31:04+02:00"
       xmp:MetadataDate="2015-04-27T10:31:04+02:00"
       xmpRights:Marked="True"
       xmpRights:WebStatement="http://www.adobe.com/legal/general-terms.html">
       <xmpMM:History>
        <rdf:Seq>
         <rdf:li
          stEvt:action="saved"
          stEvt:instanceID="xmp.iid:b12b331cc031e94d707370b2031ee33f"
          stEvt:when="2015-04-27T10:31:04+02:00"/>
        </rdf:Seq>
       </xmpMM:History>
       <xmpRights:UsageTerms>
        <rdf:Alt>
         <rdf:li xml:lang="x-default">This work is licensed under the Adobe General Terms of Use http://www.adobe.com/legal/general-terms.html.</rdf:li>
        </rdf:Alt>
       </xmpRights:UsageTerms>
       <dc:publisher>
        <rdf:Bag>
         <rdf:li>Adobe Systems Incorporated</rdf:li>
        </rdf:Bag>
       </dc:publisher>
      </rdf:Description>
     </rdf:RDF>
    </x:xmpmeta>
    <?xpacket end="r"?>
  </metadata>
<g id="Layer_2">
	<g id="New_Symbol">
	</g>
	<g id="New_Symbol_1_">
		<g id="New_Symbol_2">
		</g>
	</g>
	<g id="New_Symbol_1">
		<g id="New_Symbol_1_2_">
		</g>
	</g>
</g>
<g>
	<path fill="none" d="M346.9,207.3c0-3.9,3-6.9,6.9-6.9H380c3.9,0,6.9,3,6.9,6.9v26h48.7v-97.1h-140v97.1h51.4V207.3z"/>
	<rect x="122.1" y="214.1" fill="none" width="12.6" height="58.9"/>
	<path fill="none" d="M281.8,260.7c0-3.9,3-6.9,6.9-6.9h3.7h54.6V247h-55.1h-3.2c-3.9,0-6.9-3-6.9-6.9v-2.1
		c-4.1,3.7-7.3,6.9-8.5,8.2c-1.1,2.5-3.7,4.1-6.4,4.1c-3.9,0-6.9-3-6.9-6.9c0-3.2,0-5.3,21.5-23.8h0.2V189
		c-6.9,5.3-15.8,14.6-19.9,29.2c-5.7,20.3-7.1,43.6-7.3,54.8h27.2V260.7z"/>
	<rect x="56.7" y="267.6" fill="none" width="51.4" height="5.5"/>
	<rect x="348" y="112.3" fill="none" width="25.1" height="10.5"/>
	<rect x="386.8" y="267.6" fill="none" width="48.7" height="5.5"/>
	<rect x="360.6" y="214.1" fill="none" width="12.6" height="58.9"/>
	<path fill="none" d="M334.1,111.8c-2.7-0.9-4.6-3.4-4.6-6.4c0-3.9,3-6.9,6.9-6.9H388c3.9,0,6.9,3,6.9,6.9c0,3.9-3,6.9-6.9,6.9h-1.1
		v10.3h14.8c-1.4-33.6-14.4-50-40-50c-16.2,0-37.7,5.5-39.7,50h12.1V111.8z"/>
	<rect x="148.3" y="267.8" fill="none" width="48.7" height="5.5"/>
	<path fill="none" d="M386.8,253.9h54.6h0.9c3.9,0,6.9,3,6.9,6.9v12.3v0.2h30.2c-0.2-11.4-1.6-34.5-7.3-54.8
		c-4.8-16.7-15.5-26.3-22.6-31.3v30.4c24.2,20.6,24.2,22.8,24.2,26c0,3.9-3,6.9-6.9,6.9c-3,0-5.3-1.6-6.4-4.1
		c-1.4-1.8-5.9-5.9-11.2-10.7v4.6c0,3.9-3,6.9-6.9,6.9h-0.5h-55.1V253.9z"/>
	<rect x="295.2" y="267.6" fill="none" width="51.4" height="5.5"/>
	<path fill="none" d="M43,260.7c0-3.9,3-6.9,6.9-6.9h3.7h54.8V247H53.3h-3.2c-3.9,0-6.9-3-6.9-6.9v-2.1c-4.1,3.7-7.3,6.9-8.5,8.2
		c-1.1,2.5-3.7,4.1-6.4,4.1c-3.9,0-6.9-3-6.9-6.9c0-3.2,0-5.3,21.5-23.8V189c-6.9,5.3-15.8,14.6-19.9,29.2
		c-5.7,20.3-7.1,43.6-7.3,54.8H43V260.7z"/>
	<path fill="none" d="M148.3,253.9h54.6h0.9c3.9,0,6.9,3,6.9,6.9v12.3v0.2h30.2c-0.2-11.4-1.6-34.5-7.3-54.8
		c-4.8-16.7-15.5-26.3-22.6-31.3v30.4c24.2,20.6,24.2,22.8,24.2,26c0,3.9-3,6.9-6.9,6.9c-3,0-5.3-1.6-6.4-4.1
		c-1.4-1.8-5.9-5.9-11.2-10.7v4.6c0,3.9-3,6.9-6.9,6.9h-0.5h-55.1V253.9z"/>
	<path fill="none" d="M328.6,326.5c-5.3-1.6-10.7-0.9-15.5,1.8l-3,1.6c-9.6,5.5-13.2,17.8-8,27.6l38.4,48.2l16.2-41.8l-15.8-27.9
		C338.2,331.3,333.8,327.9,328.6,326.5z"/>
	<path fill="none" d="M108.4,207.3c0-3.9,3-6.9,6.9-6.9h26.3c3.9,0,6.9,3,6.9,6.9v26H197v-97.1h-41.8H56.7v97.1h51.6V207.3z"/>
	<polygon fill="none" points="103.6,122.5 145.4,122.5 141.5,112 106.8,112 	"/>
	<path fill="none" d="M94.9,103.3c0.9-2.7,3.7-4.8,6.6-4.8h44.5c2.7,0,5.5,1.6,6.4,4.3l5.7,14.8c-0.2-11.4-1.1-21-6.9-26.7
		c-5-5-14.2-7.5-27.9-7.5c-32,0-34.5,13.9-34.7,39.1h0.5L94.9,103.3z"/>
	<path d="M9,286.8h40.9h4.8H115h26.3h60.3h2.1h43.6h40.9h4.8h60.3h26.3h60.3h2.1h43.6c3.7,0,6.9-3,6.9-6.6c0-1.4,0.7-35.9-8-65.6
		c-8-28.1-29.9-40.7-35.9-43.4v-41.8c0-3.9-3-6.9-6.9-6.9h-27C413.3,96,404,58.8,361.3,58.8c-33.8,0-51.9,21.5-53.5,63.7h-19.9
		c-3.9,0-6.9,3-6.9,6.9v43.2c-8.2,4.6-26,17.4-33.1,42c-0.5,1.4-0.7,2.5-1.1,3.9c-0.2-1.4-0.7-2.5-1.1-3.9
		c-8-28.1-29.9-40.7-35.9-43.4v-41.8c0-3.9-3-6.9-6.9-6.9h-32c0-16-0.7-31.1-11-41.1c-7.8-7.8-20.1-11.7-37.5-11.7
		c-44.5,0-48.2,26.7-48.4,52.8H49c-3.9,0-6.9,3-6.9,6.9v43.2c-8.2,4.6-26,17.4-33.1,42c-8.5,29.7-8,64-8,65.6
		C2.1,283.8,5.3,286.8,9,286.8z M346.6,273.1h-51.4v-5.5h51.4V273.1z M373.1,273.1h-12.6v-58.9h12.6V273.1z M435.5,273.1h-48.7v-5.5
		h48.7V273.1z M441.9,247h0.5c3.9,0,6.9-3,6.9-6.9v-4.6c5.3,4.8,9.8,8.9,11.2,10.7c1.1,2.5,3.4,4.1,6.4,4.1c3.9,0,6.9-3,6.9-6.9
		c0-3.2,0-5.5-24.2-26v-30.4c7.1,5,17.8,14.6,22.6,31.3c5.7,20.3,7.1,43.4,7.3,54.8h-30.2v-0.2v-12.3c0-3.9-3-6.9-6.9-6.9h-0.9
		h-54.6V247H441.9z M361.7,72.5c25.6,0,38.6,16.4,40,50h-14.8v-10.3h1.1c3.9,0,6.9-3,6.9-6.9c0-3.9-3-6.9-6.9-6.9h-51.6
		c-3.9,0-6.9,3-6.9,6.9c0,3,1.8,5.5,4.6,6.4v10.7H322C324,78,345.5,72.5,361.7,72.5z M373.1,112.3v10.5H348v-10.5H373.1z
		 M295.5,136.2h140v97.1h-48.7v-26c0-3.9-3-6.9-6.9-6.9h-26.3c-3.9,0-6.9,3-6.9,6.9v26h-51.4V136.2z M261.9,218.2
		c4.1-14.6,13-24,19.9-29.2v30.8h-0.2c-21.5,18.5-21.5,20.6-21.5,23.8c0,3.9,3,6.9,6.9,6.9c2.7,0,5.3-1.6,6.4-4.1
		c1.1-1.4,4.3-4.6,8.5-8.2v2.1c0,3.9,3,6.9,6.9,6.9h3.2h55.1v6.9h-54.6h-3.7c-3.9,0-6.9,3-6.9,6.9v12.3h-27.2
		C254.8,261.9,256.2,238.6,261.9,218.2z M108.1,273.1H56.7v-5.5h51.4V273.1z M134.6,273.1h-12.6v-58.9h12.6V273.1z M197,273.3h-48.7
		v-5.5H197V273.3z M203.4,247h0.5c3.9,0,6.9-3,6.9-6.9v-4.6c5.3,4.8,9.8,8.9,11.2,10.7c1.1,2.5,3.4,4.1,6.4,4.1c3.9,0,6.9-3,6.9-6.9
		c0-3.2,0-5.5-24.2-26v-30.4c7.1,5,17.8,14.6,22.6,31.3c5.7,20.3,7.1,43.4,7.3,54.8h-30.2v-0.2v-12.3c0-3.9-3-6.9-6.9-6.9h-0.9
		h-54.6V247H203.4z M123.4,83.5c13.7,0,22.8,2.5,27.9,7.5c5.7,5.7,6.6,15.3,6.9,26.7l-5.7-14.8c-0.9-2.7-3.7-4.3-6.4-4.3h-44.5
		c-3,0-5.7,2.1-6.6,4.8l-5.7,19.2h-0.5C89,97.4,91.5,83.5,123.4,83.5z M145.4,122.5h-41.8l3.2-10.5h34.7L145.4,122.5z M56.7,136.2
		h98.5H197v97.1h-48.7v-26c0-3.9-3-6.9-6.9-6.9h-26.3c-3.9,0-6.9,3-6.9,6.9v26H56.7V136.2z M23.2,218.2c4.1-14.6,13-24,19.9-29.2
		v30.8c-21.5,18.5-21.5,20.6-21.5,23.8c0,3.9,3,6.9,6.9,6.9c2.7,0,5.3-1.6,6.4-4.1c1.1-1.4,4.3-4.6,8.5-8.2v2.1c0,3.9,3,6.9,6.9,6.9
		h3.2h55.1v6.9H53.5h-3.7c-3.9,0-6.9,3-6.9,6.9v12.3H15.9C16.1,261.9,17.5,238.6,23.2,218.2z"/>
	<path d="M492.1,296.4H9c-3.9,0-6.9,3-6.9,6.9c0,3.9,3,6.9,6.9,6.9h483.1c3.9,0,6.9-3,6.9-6.9C499,299.3,496,296.4,492.1,296.4z"/>
	<path d="M89.6,312.4h-3.4c-19,0-34.3,15.3-34.3,34.3v82.2c0,3.9,3,6.9,6.9,6.9c3.9,0,6.9-3,6.9-6.9v-82.2
		c0-11.4,9.1-20.6,20.6-20.6h3.4c11.4,0,20.6,9.1,20.6,20.6v82.2c0,3.9,3,6.9,6.9,6.9c3.9,0,6.9-3,6.9-6.9v-82.2
		C123.9,327.7,108.6,312.4,89.6,312.4z"/>
	<path d="M168.4,312.4H165c-19,0-34.3,15.3-34.3,34.3v82.2c0,3.9,3,6.9,6.9,6.9c3.9,0,6.9-3,6.9-6.9v-82.2
		c0-11.4,9.1-20.6,20.6-20.6h3.4c11.4,0,20.6,9.1,20.6,20.6v82.2c0,3.9,3,6.9,6.9,6.9c3.9,0,6.9-3,6.9-6.9v-82.2
		C202.7,327.7,187.4,312.4,168.4,312.4z"/>
	<path d="M417.7,317.4l-3.2-1.4c-8.2-3.9-17.6-4.3-26.3-1.1c-8.7,3.2-15.5,9.4-19.4,17.8c0,0.2-0.2,0.2-0.2,0.5l-5.5,14.4l-10.3-18
		c-9.4-16.4-30.2-22.2-46.6-13l-3,1.6c-16.4,9.4-22.2,30.2-13,46.6c0.2,0.2,0.5,0.7,0.7,0.9l43.9,54.8l-2.7,7.1
		c-1.4,3.4,0.5,7.5,3.9,8.9c3.4,1.4,7.5-0.5,8.9-3.9l0.7-1.6l35.9-92.7c2.3-4.8,6.4-8.7,11.4-10.5c5.3-1.8,10.7-1.6,15.8,0.7
		l3.2,1.4c10.1,4.8,14.6,16.7,10.1,27l-48.2,74c-0.7,0.9-0.9,2.1-1.1,3c-0.2,2.5,0.9,5,3,6.4c1.1,0.7,2.5,1.1,3.7,1.1
		c2.3,0,4.3-1.1,5.7-3.2l48.4-74.5c0.2-0.2,0.2-0.5,0.5-0.9C442.3,345.9,434.8,325.4,417.7,317.4z M340.5,405.8l-38.4-48.2
		c-5.3-9.8-1.6-22.2,8-27.6l3-1.6c4.8-2.7,10.3-3.4,15.5-1.8c5.3,1.4,9.6,4.8,12.3,9.6l15.8,27.9L340.5,405.8z"/>
</g>
</svg>
